<svg width="20" height="20" viewBox="0 0 20 20" fill="none" xmlns="http://www.w3.org/2000/svg">
<path d="M9.9987 0.000179291C4.47744 0.000179291 0 4.47593 0 9.99732C0 14.4134 2.86509 18.1597 6.84002 19.4827C7.33997 19.5751 7.52254 19.2665 7.52254 19.0013C7.52254 18.7635 7.51395 18.1349 7.50871 17.3009C4.72752 17.9047 4.14014 15.9605 4.14014 15.9605C3.68633 14.8053 3.02997 14.498 3.02997 14.498C2.12118 13.8782 3.09757 13.8907 3.09757 13.8907C4.10125 13.9615 4.62873 14.9212 4.62873 14.9212C5.52122 16.4484 6.97011 16.0077 7.54006 15.7514C7.63 15.1054 7.88867 14.6649 8.17517 14.4147C5.955 14.162 3.6199 13.3043 3.6199 9.47459C3.6199 8.38296 4.01009 7.49069 4.6499 6.79107C4.54617 6.5384 4.20372 5.5214 4.74751 4.14602C4.74751 4.14602 5.58761 3.87737 7.49739 5.17043C8.29499 4.94881 9.15001 4.83823 10.0012 4.83448C10.8499 4.8396 11.706 4.94881 12.5049 5.1718C14.4138 3.87853 15.2525 4.14739 15.2525 4.14739C15.7974 5.52402 15.455 6.53974 15.3525 6.79224C15.9936 7.49185 16.38 8.38417 16.38 9.47592C16.38 13.3156 14.0425 14.1607 11.8151 14.4083C12.1738 14.7172 12.4937 15.3268 12.4937 16.2591C12.4937 17.5961 12.4812 18.6738 12.4812 19.0013C12.4812 19.2688 12.6612 19.5799 13.1687 19.4816C17.1375 18.1571 20 14.4122 20 9.99732C20 4.47589 15.5226 0.000179291 9.9987 0.000179291Z" fill="#95A2A7"/>
</svg>
