<svg width="20" height="20" viewBox="0 0 20 20" fill="none" xmlns="http://www.w3.org/2000/svg">
<path fill-rule="evenodd" clip-rule="evenodd" d="M10 0C15.5191 0 20 4.48086 20 10C20 15.5191 15.5191 20 10 20C4.48086 20 0 15.5191 0 10C0 4.48086 4.48086 0 10 0ZM11.5975 13.5105C12.2976 13.5105 12.8696 14.0825 12.8696 14.7826C12.8696 15.4827 12.2976 16.0547 11.5975 16.0547C10.8973 16.0547 10.3254 15.4827 10.3254 14.7826V13.5105H11.5975ZM7.13043 11.5975C7.13043 10.8973 7.70238 10.3254 8.4025 10.3254C9.10266 10.3254 9.67457 10.8973 9.67457 11.5975V14.7826C9.67457 15.4827 9.10266 16.0547 8.4025 16.0547C7.70238 16.0547 7.13043 15.4827 7.13043 14.7826V11.5975ZM6.48945 11.5975C6.48945 12.2976 5.91754 12.8696 5.21738 12.8696C4.51727 12.8696 3.94531 12.2976 3.94531 11.5975C3.94531 10.8973 4.51727 10.3254 5.21738 10.3254H6.48945V11.5975ZM14.7826 12.8696C15.4828 12.8695 16.0547 12.2976 16.0547 11.5975C16.0547 10.8973 15.4827 10.3254 14.7826 10.3254H11.5975C10.8973 10.3254 10.3254 10.8973 10.3254 11.5975C10.3254 12.2976 10.8973 12.8696 11.5975 12.8696H14.7826ZM14.7826 9.67457C15.4828 9.67457 16.0547 9.10262 16.0547 8.4025C16.0547 7.70238 15.4827 7.13043 14.7826 7.13043C14.0825 7.13043 13.5105 7.70238 13.5105 8.4025V9.67457H14.7826ZM12.8696 8.4025C12.8696 9.10266 12.2976 9.67457 11.5975 9.67457C10.8973 9.67457 10.3254 9.10266 10.3254 8.4025V5.21738C10.3254 4.51727 10.8973 3.94531 11.5975 3.94531C12.2976 3.94531 12.8696 4.51727 12.8696 5.21738V8.4025ZM8.4025 9.67457C9.10266 9.67457 9.67457 9.10262 9.67457 8.4025C9.67457 7.70238 9.10266 7.13043 8.4025 7.13043H5.21738C4.51727 7.13043 3.94531 7.70238 3.94531 8.4025C3.94531 9.10266 4.51727 9.67457 5.21738 9.67457H8.4025ZM9.67457 6.48945V5.21738C9.67457 4.51727 9.10266 3.94531 8.4025 3.94531C7.70238 3.94531 7.13043 4.51727 7.13043 5.21738C7.13043 5.91754 7.70238 6.48945 8.4025 6.48945H9.67457Z" fill="#95A2A7"/>
</svg>
